<svg xmlns="http://www.w3.org/2000/svg" xmlns:xlink="http://www.w3.org/1999/xlink" width="77" zoomAndPan="magnify" viewBox="0 0 57.75 65.249999" height="87" preserveAspectRatio="xMidYMid meet" version="1.0"><defs><clipPath id="00a38ac265"><path d="M 0.203125 0 L 57.296875 0 L 57.296875 64.507812 L 0.203125 64.507812 Z M 0.203125 0 " clip-rule="nonzero"/></clipPath><clipPath id="57c25245eb"><path d="M 1.710938 1.703125 L 55.839844 1.703125 L 55.839844 62.503906 L 1.710938 62.503906 Z M 1.710938 1.703125 " clip-rule="nonzero"/></clipPath></defs><g clip-path="url(#00a38ac265)"><path fill="#8c52ff" d="M 2.953125 47.550781 L 17.636719 57.425781 C 28.191406 64.507812 28.199219 64.5 28.710938 64.492188 C 29.226562 64.484375 29.300781 64.5 39.847656 57.425781 L 54.539062 47.550781 C 55.394531 46.972656 56.0625 46.230469 56.546875 45.320312 C 57.027344 44.410156 57.269531 43.4375 57.269531 42.410156 L 57.269531 22.09375 C 57.269531 21.0625 57.027344 20.09375 56.546875 19.183594 C 56.0625 18.273438 55.394531 17.535156 54.539062 16.957031 L 39.847656 7.085938 C 29.703125 0.265625 29.316406 0.0078125 28.832031 0.0078125 L 28.78125 0.0078125 C 28.167969 0 28.183594 0 17.636719 7.085938 L 2.953125 16.957031 C 2.09375 17.53125 1.425781 18.273438 0.941406 19.183594 C 0.453125 20.09375 0.214844 21.0625 0.214844 22.09375 L 0.214844 42.410156 C 0.214844 43.441406 0.453125 44.410156 0.941406 45.320312 C 1.425781 46.234375 2.09375 46.976562 2.953125 47.550781 Z M 28.742188 3.929688 C 31.757812 5.941406 41.488281 12.484375 51.273438 19.0625 L 48.484375 20.988281 L 39.847656 15.183594 C 29.703125 8.371094 29.316406 8.113281 28.832031 8.113281 L 28.78125 8.113281 C 28.167969 8.105469 28.183594 8.097656 17.636719 15.183594 L 9.015625 20.980469 L 6.277344 19.015625 C 16.039062 12.453125 25.738281 5.933594 28.742188 3.929688 Z M 36.113281 29.320312 C 29.605469 24.949219 29.25 24.746094 28.832031 24.746094 L 28.78125 24.746094 C 28.25 24.738281 28.175781 24.746094 21.371094 29.304688 L 18.261719 27.226562 L 28.742188 20.195312 C 30.035156 21.0625 32.992188 23.039062 39.222656 27.226562 Z M 32.914062 31.46875 L 28.742188 34.257812 L 24.574219 31.46875 L 28.742188 28.671875 Z M 42.425781 25.078125 L 39.847656 23.347656 C 29.703125 16.535156 29.316406 16.277344 28.832031 16.277344 L 28.78125 16.277344 C 28.167969 16.269531 28.183594 16.261719 17.636719 23.347656 L 15.0625 25.078125 L 12.191406 23.144531 C 22.753906 16.042969 27.085938 13.140625 28.742188 12.035156 C 30.398438 13.140625 34.753906 16.050781 45.300781 23.144531 Z M 3.785156 23.1875 L 3.785156 22.09375 C 3.785156 22 3.804688 21.910156 3.8125 21.820312 L 17.636719 31.105469 C 28.191406 38.195312 28.199219 38.191406 28.710938 38.183594 C 29.226562 38.175781 29.300781 38.191406 39.847656 31.105469 L 53.667969 21.820312 C 53.675781 21.910156 53.707031 22 53.707031 22.09375 L 53.707031 24.722656 C 53.707031 25.160156 53.601562 25.570312 53.398438 25.953125 C 53.191406 26.339844 52.90625 26.652344 52.542969 26.894531 C 36.589844 37.621094 30.738281 41.546875 28.742188 42.882812 C 26.746094 41.546875 20.894531 37.621094 4.941406 26.894531 C 4.578125 26.652344 4.296875 26.339844 4.089844 25.953125 C 3.886719 25.570312 3.785156 25.160156 3.785156 24.722656 Z M 3.785156 30.417969 L 17.636719 39.730469 C 28.191406 46.816406 28.199219 46.808594 28.710938 46.800781 C 29.226562 46.792969 29.300781 46.816406 39.847656 39.730469 L 53.707031 30.417969 L 53.707031 33.789062 C 53.707031 34.226562 53.605469 34.636719 53.398438 35.023438 C 53.191406 35.410156 52.90625 35.722656 52.542969 35.964844 C 42.34375 42.824219 31.886719 49.855469 28.742188 51.949219 C 25.597656 49.855469 15.140625 42.824219 4.941406 35.964844 C 4.578125 35.722656 4.296875 35.40625 4.089844 35.023438 C 3.886719 34.636719 3.785156 34.226562 3.785156 33.789062 Z M 3.785156 39.480469 L 17.636719 48.796875 C 28.191406 55.890625 28.199219 55.882812 28.710938 55.875 C 29.226562 55.867188 29.300781 55.882812 39.847656 48.796875 L 53.707031 39.480469 L 53.707031 42.410156 C 53.707031 42.847656 53.605469 43.257812 53.398438 43.644531 C 53.191406 44.027344 52.90625 44.34375 52.542969 44.585938 C 36.589844 55.316406 30.738281 59.238281 28.742188 60.578125 C 26.746094 59.238281 20.894531 55.316406 4.941406 44.585938 C 4.578125 44.34375 4.292969 44.027344 4.089844 43.640625 C 3.882812 43.257812 3.78125 42.84375 3.785156 42.410156 Z M 3.785156 39.480469 " fill-opacity="1" fill-rule="nonzero"/></g><g clip-path="url(#57c25245eb)"><path fill="#8c52ff" d="M 4.3125 46.742188 L 18.222656 56.09375 C 28.21875 62.804688 28.226562 62.796875 28.714844 62.789062 C 29.199219 62.78125 29.273438 62.796875 39.261719 56.09375 L 53.175781 46.742188 C 53.988281 46.195312 54.621094 45.492188 55.078125 44.628906 C 55.535156 43.765625 55.765625 42.847656 55.761719 41.871094 L 55.761719 22.628906 C 55.765625 21.652344 55.535156 20.734375 55.078125 19.875 C 54.621094 19.011719 53.988281 18.308594 53.175781 17.765625 L 39.261719 8.414062 C 29.652344 1.953125 29.285156 1.710938 28.828125 1.710938 L 28.777344 1.710938 C 28.199219 1.703125 28.210938 1.703125 18.222656 8.414062 L 4.3125 17.765625 C 3.503906 18.308594 2.867188 19.011719 2.40625 19.871094 C 1.949219 20.734375 1.71875 21.652344 1.722656 22.628906 L 1.722656 41.871094 C 1.71875 42.847656 1.949219 43.769531 2.40625 44.632812 C 2.867188 45.492188 3.503906 46.195312 4.3125 46.742188 Z M 28.742188 5.425781 C 31.601562 7.332031 40.816406 13.527344 50.082031 19.757812 L 47.441406 21.582031 L 39.261719 16.082031 C 29.652344 9.628906 29.285156 9.386719 28.828125 9.386719 L 28.777344 9.386719 C 28.199219 9.378906 28.210938 9.371094 18.222656 16.082031 L 10.058594 21.574219 L 7.464844 19.714844 C 16.710938 13.496094 25.898438 7.324219 28.742188 5.425781 Z M 35.726562 29.472656 C 29.558594 25.335938 29.222656 25.140625 28.828125 25.140625 L 28.777344 25.140625 C 28.277344 25.132812 28.207031 25.140625 21.757812 29.460938 L 18.816406 27.492188 L 28.742188 20.832031 C 29.96875 21.652344 32.765625 23.523438 38.667969 27.492188 Z M 32.695312 31.507812 L 28.742188 34.152344 L 24.796875 31.507812 L 28.742188 28.859375 Z M 41.703125 25.457031 L 39.261719 23.816406 C 29.652344 17.363281 29.285156 17.121094 28.828125 17.121094 L 28.777344 17.121094 C 28.199219 17.113281 28.210938 17.105469 18.222656 23.816406 L 15.785156 25.457031 L 13.066406 23.625 C 23.070312 16.898438 27.175781 14.148438 28.742188 13.101562 C 30.3125 14.148438 34.4375 16.90625 44.425781 23.625 Z M 5.101562 23.667969 L 5.101562 22.628906 C 5.101562 22.542969 5.125 22.457031 5.128906 22.371094 L 18.222656 31.164062 C 28.21875 37.882812 28.226562 37.875 28.714844 37.867188 C 29.199219 37.859375 29.273438 37.875 39.261719 31.164062 L 52.355469 22.371094 C 52.359375 22.457031 52.390625 22.542969 52.390625 22.628906 L 52.390625 25.121094 C 52.390625 25.535156 52.289062 25.921875 52.09375 26.285156 C 51.898438 26.648438 51.628906 26.945312 51.285156 27.175781 C 36.175781 37.339844 30.632812 41.054688 28.742188 42.324219 C 26.851562 41.054688 21.308594 37.339844 6.199219 27.175781 C 5.855469 26.945312 5.585938 26.648438 5.390625 26.285156 C 5.199219 25.921875 5.101562 25.53125 5.101562 25.121094 Z M 5.101562 30.511719 L 18.222656 39.335938 C 28.21875 46.046875 28.226562 46.039062 28.714844 46.03125 C 29.199219 46.023438 29.273438 46.046875 39.261719 39.335938 L 52.390625 30.511719 L 52.390625 33.707031 C 52.390625 34.121094 52.292969 34.511719 52.097656 34.875 C 51.902344 35.242188 51.632812 35.539062 51.285156 35.769531 C 41.625 42.265625 31.722656 48.925781 28.742188 50.910156 C 25.761719 48.925781 15.859375 42.265625 6.199219 35.769531 C 5.855469 35.539062 5.585938 35.242188 5.390625 34.875 C 5.199219 34.511719 5.101562 34.121094 5.101562 33.707031 Z M 5.101562 39.101562 L 18.222656 47.921875 C 28.21875 54.640625 28.226562 54.632812 28.714844 54.625 C 29.199219 54.617188 29.273438 54.632812 39.261719 47.921875 L 52.390625 39.101562 L 52.390625 41.871094 C 52.390625 42.285156 52.292969 42.675781 52.097656 43.039062 C 51.902344 43.40625 51.632812 43.703125 51.285156 43.933594 C 36.175781 54.097656 30.632812 57.8125 28.742188 59.082031 C 26.851562 57.8125 21.308594 54.097656 6.199219 43.933594 C 5.855469 43.703125 5.585938 43.40625 5.390625 43.039062 C 5.195312 42.675781 5.101562 42.285156 5.101562 41.871094 Z M 5.101562 39.101562 " fill-opacity="1" fill-rule="nonzero"/></g></svg>
